# xmcd
#
# Track frame offsets:
# 150
# 16570
# 34693
# 48756
# 67337
# 85801
# 98943
# 114720
# 133385
# 149596
# 166787
# 181872
# 197707
# 215132
# 229235
# 243411
# 256839
# 269754
# 287073
# 304096
#
# Disc length: 4330 seconds
#
#
# Revision: 1
# Processed by: cddbd v1.5.2PL0 Copyright (c) Steve Scherf et al.
# Submitted via: FreeRIP 2.942 
#
DISCID=2c10e814
DTITLE=Capitan Caribe - J. Punset - Las Grandes Sesiones De La Salsa 3 [CD 4)
DYEAR=1900
DGENRE=Salsa
TTITLE0=Cuenta Bien - Edwin
TTITLE1=Ni Poco Ni Demasiado - Roberto Lugo
TTITLE2=20 Aniversario - Bronko
TTITLE3=Implorando Tu Perdon - Paquito Acosta
TTITLE4=Celebrando - Don Perignon
TTITLE5=Me Sube La Fiebre - Michel Maza
TTITLE6=Por Ser Tan Nina - Nino Segarra
TTITLE7=El Temblor  - Orquesta La Palabra
TTITLE8=El Amolao - La Nueva Patrulla 15
TTITLE9=Con Dos Clavos Dentro - Grupasso
TTITLE10=Bailando Con Mi Fantasma - Jose Juan
TTITLE11=Preso - (J.Pena Suazo)- Pena Suazo Y La Banda Gorda
TTITLE12=Si Te Pudiera Mentir - Amarfis Y La Banda De Atakke
TTITLE13=El Lobo - Ramon Orlando
TTITLE14=No Me Resigno - Toke De Keda
TTITLE15=Intentalo Tu - Joe Veras
TTITLE16=Derroche De Sexo - Raulin Rodriguez
TTITLE17=Entre La Tierra Y El Cielo - Luna Llena
TTITLE18=Senora - Leonardo Valerio
TTITLE19=A Dios Le Pido - Fusila'tto
EXTD=
EXTT0=
EXTT1=
EXTT2=
EXTT3=
EXTT4=
EXTT5=
EXTT6=
EXTT7=
EXTT8=
EXTT9=
EXTT10=
EXTT11=
EXTT12=
EXTT13=
EXTT14=
EXTT15=
EXTT16=
EXTT17=
EXTT18=
EXTT19=
PLAYORDER=
